<?xml version="1.0" encoding="utf-8"?>
<!-- Generator: Adobe Illustrator 19.0.0, SVG Export Plug-In . SVG Version: 6.00 Build 0)  -->
<svg version="1.1" id="Layer_1" xmlns="http://www.w3.org/2000/svg" xmlns:xlink="http://www.w3.org/1999/xlink" x="0px" y="0px"
	 viewBox="0 0 36.8 48" style="enable-background:new 0 0 36.8 48;" xml:space="preserve">
<style type="text/css">
	.st0{fill:#FFFFFF;}
</style>
<g id="XMLID_25_">
	<g id="XMLID_23_">
		<path id="XMLID_44_" class="st0" d="M18.3,10.5c-2.9,0-5.3-2.4-5.3-5.3C13,2.4,15.4,0,18.3,0s5.3,2.4,5.3,5.3
			C23.6,8.2,21.2,10.5,18.3,10.5L18.3,10.5z M18.3,1.2c-2.2,0-4.1,1.8-4.1,4.1c0,2.2,1.8,4.1,4.1,4.1c2.2,0,4.1-1.8,4.1-4.1
			C22.4,3,20.5,1.2,18.3,1.2L18.3,1.2z M18.3,1.2"/>
		<path id="XMLID_40_" class="st0" d="M21.8,48c-1.5,0-2.8-1.3-2.8-2.8V30.8h-1.3v14.5c0,1.5-1.3,2.8-2.8,2.8s-2.8-1.3-2.8-2.8V29.4
			c-1.4-0.8-2.2-2.2-2.2-3.8V16c0-2,1.4-3.8,3.3-4.3c0.2-0.1,10.1,0,10.2,0c1.9,0.5,3.2,2.3,3.2,4.3v9.6c0,1.6-0.8,3-2.1,3.8l0,15.8
			C24.5,46.7,23.3,48,21.8,48L21.8,48z M16.5,29.6h3.7v15.7c0,0.9,0.7,1.6,1.6,1.6c0.9,0,1.6-0.7,1.6-1.6l0-16.5
			c0,0,2.1-1.1,2.1-3.1V16c0-1.5-1-2.8-2.4-3.1l-9.5,0c-1.5,0.4-2.5,1.7-2.5,3.2v9.6c0,2.3,2.2,3.1,2.2,3.1v16.5
			c0,0.9,0.7,1.6,1.6,1.6c0.9,0,1.6-0.7,1.6-1.6V29.6z M16.5,29.6"/>
		<path id="XMLID_36_" class="st0" d="M6.2,17c-2.4,0-4.3-1.9-4.3-4.3c0-2.4,1.9-4.3,4.3-4.3c1.1,0,2.1,0.3,2.9,0.9
			c1.6,1.3,1.4,3,1.4,3S8.9,13.5,8.9,16l-0.4,0.3C7.8,16.8,7,17,6.2,17L6.2,17z M6.2,9.5c-1.7,0-3.1,1.4-3.1,3.1
			c0,1.7,1.4,3.1,3.1,3.1c0.5,0,1.2-0.2,1.6-0.5c0.1-0.6,0.1-0.9,0.4-1.8c0.2-0.5,0.6-1.2,1.1-1.6C9.2,10.4,7.7,9.5,6.2,9.5L6.2,9.5
			z M6.2,9.5"/>
		<path id="XMLID_32_" class="st0" d="M9.6,47.4c-1.3,0-2.4-1.1-2.4-2.4V33.6H6.4v11.4c0,1.3-1.1,2.4-2.4,2.4
			c-1.3,0-2.4-1.1-2.4-2.4l0-12.6C0.6,31.8,0,30.7,0,29.4v-7.6c0-1.6,1.1-3.1,2.6-3.5c0.2-0.1,6.3,0,6.3,0v8.4
			c0,2.2,2.1,3.1,2.1,3.1l0,14.8c0,0.6,0,1.1,0,1.3c0,0.4-0.1,0.8-0.4,1.1C10.4,47.3,10,47.4,9.6,47.4L9.6,47.4z M5.2,32.4h3.2v12.6
			c0,0.6,0.5,1.2,1.2,1.2c0.3,0,0.3-0.6,0.3-0.6c0-0.2,0-15.1,0-15.1c-1.3-0.8-2.1-2.2-2.1-3.8v-7.2c-2.1,0-4.7,0-4.7,0
			c-1.1,0.3-1.8,1.3-1.8,2.4v7.6c0,0.9,0.5,1.8,1.4,2.2l0.3,0.2l0,13.3c0,0.6,0.5,1.2,1.2,1.2c0.6,0,1.2-0.5,1.2-1.2V32.4z
			 M5.2,32.4"/>
		<path id="XMLID_28_" class="st0" d="M28.3,16.3L27.8,16c0-2.6-1.6-3.7-1.6-3.7s-0.2-1.7,1.4-3c0.8-0.6,1.8-0.9,2.9-0.9
			c2.4,0,4.3,1.9,4.3,4.3c0,2.4-1.9,4.3-4.3,4.3C29.8,17,28.9,16.8,28.3,16.3L28.3,16.3z M27.4,11.9c0.6,0.5,0.9,1.1,1.1,1.6
			c0.3,0.9,0.3,1.1,0.4,1.8c0.4,0.2,1.1,0.5,1.6,0.5c1.7,0,3.1-1.4,3.1-3.1c0-1.7-1.4-3.1-3.1-3.1C29.1,9.5,27.6,10.4,27.4,11.9
			L27.4,11.9z M27.4,11.9"/>
		<path id="XMLID_24_" class="st0" d="M26.1,47c-0.3-0.3-0.4-0.7-0.4-1.1c0-0.2,0-0.6,0-1.3l0-14.8c0,0,2.2-0.9,2.1-3.1v-8.4
			c0,0,6.2,0,6.3,0c1.6,0.5,2.6,1.9,2.6,3.5v7.6c0,1.3-0.6,2.4-1.7,3.1l0,12.6c0,1.3-1.1,2.4-2.4,2.4c-1.3,0-2.4-1.1-2.4-2.4V33.6
			h-0.8v11.4c0,1.3-1.1,2.4-2.4,2.4C26.8,47.4,26.4,47.3,26.1,47L26.1,47z M31.6,45.1c0,0.6,0.5,1.2,1.2,1.2c0.6,0,1.2-0.5,1.2-1.2
			l0-13.3l0.3-0.2c0.8-0.4,1.4-1.3,1.4-2.2v-7.6c0-1.1-0.8-2.1-1.8-2.4c0,0-2.7,0-4.7,0v7.2c0,1.6-0.8,3-2.1,3.8c0,0,0,15,0,15.1
			c0,0,0,0.6,0.3,0.6c0.6,0,1.2-0.5,1.2-1.2V32.4h3.2V45.1z M31.6,45.1"/>
	</g>
	<g id="XMLID_1_">
		<path id="XMLID_26_" class="st0" d="M18.4,20.5c-0.3,0-0.5-0.1-0.6-0.4l-2.5-5.5c-0.1-0.3,0-0.7,0.3-0.9c0.3-0.1,0.7,0,0.9,0.3
			l1.9,4.2l1.9-4.2c0.1-0.3,0.5-0.5,0.9-0.3c0.3,0.1,0.5,0.5,0.3,0.9L19,20.1C18.9,20.4,18.6,20.5,18.4,20.5z"/>
	</g>
	<circle id="XMLID_3_" class="st0" cx="18.4" cy="22.6" r="0.9"/>
	<rect id="XMLID_22_" x="17.4" y="22.6" class="st0" width="0.9" height="2.4"/>
</g>
</svg>
