<?xml version="1.0" encoding="utf-8"?>
<!-- Generator: Adobe Illustrator 16.0.0, SVG Export Plug-In . SVG Version: 6.00 Build 0)  -->
<!DOCTYPE svg PUBLIC "-//W3C//DTD SVG 1.1//EN" "http://www.w3.org/Graphics/SVG/1.1/DTD/svg11.dtd">
<svg version="1.1" id="Layer_1" xmlns="http://www.w3.org/2000/svg" xmlns:xlink="http://www.w3.org/1999/xlink" x="0px" y="0px"
	 width="110px" height="110px" viewBox="0 0 110 110" enable-background="new 0 0 110 110" xml:space="preserve">
<path d="M57,47"/>
<g>
	<path fill="#FFFFFF" d="M54.999,0C24.673,0,0,24.67,0,54.998C0,85.325,24.673,110,54.999,110C85.324,110,110,85.325,110,54.998
		C110,24.67,85.324,0,54.999,0z M54.999,108.063c-29.302,0-53.065-23.754-53.065-53.065c0-29.298,23.763-53.062,53.065-53.062
		c29.3,0,53.065,23.763,53.065,53.062C108.064,84.309,84.299,108.063,54.999,108.063z"/>
	<path fill="#FFFFFF" d="M54.996,22.863c17.746,0,32.141,14.393,32.141,32.136c0,17.751-14.395,32.137-32.141,32.137
		c-17.747,0-32.133-14.386-32.133-32.137C22.863,37.256,37.249,22.863,54.996,22.863 M54.996,20.928
		c-18.787,0-34.067,15.284-34.067,34.072s15.28,34.072,34.067,34.072C73.785,89.071,89.07,73.787,89.07,55
		S73.785,20.928,54.996,20.928L54.996,20.928z"/>
	<path fill="#FFFFFF" d="M104.463,42.62l0.574,2.682l-2.453,0.526l-2.23-0.865l-0.273-1.285l2.129,0.405l-0.199-0.937L104.463,42.62
		z"/>
	<path fill="#FFFFFF" d="M84.268,48.343v-3.688h-2.152V43.32v-0.188H80.59v-1.199v-0.192h-2.215v-1.142v-0.193h-2.848v7.381h-5.924
		c-0.414-0.269-0.932-0.426-1.533-0.48l-0.389-0.02c-0.613,0-1.16,0.159-1.578,0.5H43.11c-0.501-0.542-1.224-0.866-2.057-0.884
		h-0.089c-0.821-0.005-1.584,0.312-2.093,0.884h-4.403l0.013-7.285H34.29h-1.974h-0.19v1.202h-1.77h-0.19v1.271h-1.775h-0.188v1.139
		h-1.968h-0.189v3.516h-1.267h-0.191v2.804h1.271v3.245h1.393v1.206v0.189h2.467v1.649v0.189h2.033v0.571v0.188h2.658v-7.285h4.015
		c0.037,0.111,0.074,0.222,0.112,0.331c0.139,0.391,0.404,1.561,0.413,1.968c-0.015,0.066-0.028,0.132-0.053,0.205
		c-0.227,0.703-0.758,1.54-1.007,2.175c-0.377,0.974-0.433,1.927-0.479,2.917l-0.002,0.004v0.012
		c-0.008,0.142-0.013,0.281-0.021,0.423c-0.043,0.896-0.093,1.793-0.093,2.686c0,1.47,0.138,2.913,0.688,4.282
		c0.124,0.307,0.266,0.59,0.423,0.858v0.007l0.013,0.012c0.432,0.738,0.982,1.354,1.626,1.938c0.341,0.299,0.898,1.061,0.898,1.061
		c0.142,0.529,0.074,1.259,0.183,1.884c0.22,1.234,0.811,2.069,1.546,2.872c0.003,0.003,0.005,0.008,0.01,0.012l0.024,0.025
		c0.225,0.243,0.461,0.483,0.703,0.731c0.997,1.013,1.839,1.813,2.681,2.905c0.826,1.072,1.788,1.959,2.476,3.076l0.004,3.357
		l0.15,0.039c2.326,0.503,4.359,0.677,6.033,0.677c3.341,0,5.267-0.677,5.28-0.68l0.127-0.048v-2.797l1.041-1.122
		c0.041-0.043,0.082-0.086,0.121-0.131l0.004-0.004v-0.001c0.699-0.771,1.33-1.627,1.926-2.442c0.215-0.305,0.404-0.619,0.586-0.932
		v-0.001v-0.001c0.4-0.688,0.762-1.362,1.287-1.863c0.182-0.177,0.377-0.354,0.578-0.533v-0.001l0,0
		c0.719-0.65,1.48-1.355,1.818-2.364c0.049-0.155,0.088-0.313,0.119-0.469l0,0v-0.002c0.088-0.453,0.117-0.902,0.203-1.322
		c0.125-0.607,0.262-0.709,0.666-1.191c0.174-0.208,0.342-0.417,0.51-0.625l0.004-0.005l0.002-0.003
		c1.453-1.813,2.646-3.658,3.217-6.028c0.172-0.719,0.232-1.555,0.232-2.364c0-0.2-0.006-0.398-0.012-0.596v-0.005v-0.004
		c-0.008-0.262-0.021-0.521-0.041-0.768c-0.076-0.93-0.33-2.213-0.961-3.047l-0.002-0.008l-0.006-0.002
		c-0.057-0.073-0.109-0.149-0.172-0.216c-0.014-0.013-0.031-0.021-0.045-0.032l0.006-0.192c0-0.759-0.23-1.704-0.779-2.3
		l-0.016-0.014l-0.176-0.154c0.162-0.734,0.301-1.437,0.332-2.19h4.984v7.792h2.537v-1.073h1.582h0.191v-1.021h1.77h0.191v-1.392
		h2.158h0.189v-3.693h1.012h0.191v-2.656H84.268z M41.946,54.07c0.01-0.19,0.021-0.498,0.042-0.791l0.017-0.163
		c0.026-0.208,0.071-0.398,0.118-0.466l0.266-0.214c0.131-0.079,0.293-0.166,0.417-0.324c0.349-0.447,0.687-1.083,0.866-1.725
		h21.826c0.051,0.273,0.121,0.56,0.225,0.831c0.221,0.585,1.121,1.214,1.121,1.214l-0.031,0.137
		c-0.051,0.205-0.066,0.423-0.066,0.646c0,0.654,0.086,1.854,0.086,1.854c-0.492,0.516-0.742,1.139-0.74,1.818
		c0,0.229,0.025,0.461,0.08,0.701c0.084,0.393,0.236,0.695,0.424,0.955l-0.051-0.002c-1.207-0.006-2.031,0.6-2.666,1.682
		c-0.467,0.773-0.557,1.555-0.555,2.357c0,0.117,0.01,0.24,0.012,0.359l-0.002,0.009l0.002,0.014
		c0.006,0.234,0.01,0.467,0.016,0.706c-0.146-0.024-0.291-0.037-0.438-0.037c-0.697,0-1.363,0.262-1.938,0.633
		c-0.184,0.117-0.545,0.41-0.885,0.725c-0.164,0.156-0.326,0.316-0.447,0.469c-0.043,0.053-0.074,0.102-0.107,0.15l-0.154-0.172
		c-0.027-0.035-0.057-0.071-0.086-0.107l-0.75-1.66l-0.004-0.325c0.25-0.515,0.424-1.097,0.547-1.503
		c0.119-0.412,0.17-0.844,0.17-1.268c0-0.316-0.033-0.628-0.074-0.936v-0.013l-0.002-0.021c-0.053-0.352-0.123-0.697-0.203-1.024
		c-0.109-0.466-0.236-0.862-0.42-1.204l-0.002-0.002l-0.004-0.002c-0.277-0.508-0.698-0.887-1.445-1.158
		c-0.536-0.202-1.142-0.26-1.742-0.26c-0.287,0-0.566,0.014-0.84,0.033l-0.011-0.002l-0.006,0.003
		c-0.161,0.011-0.325,0.022-0.479,0.038c-0.876,0.084-1.554,0.465-2.048,1.005l-0.006,0.002l-0.009,0.016
		c-0.138,0.155-0.27,0.319-0.377,0.498c-0.302,0.493-0.486,1.063-0.596,1.65l-0.012,0.027l0.001,0.038
		c-0.062,0.365-0.104,0.736-0.104,1.104c0,0.484,0.049,0.956,0.147,1.397c0.085,0.41,0.225,0.771,0.397,1.097l0,0l-0.542,1.604
		l-0.718,1.164c-0.008,0.008-0.016,0.018-0.024,0.027l-0.642,0.633c-0.029,0.027-0.061,0.054-0.09,0.08l-0.7-0.764
		c-0.23-0.26-0.475-0.51-0.668-0.719c-0.583-0.639-1.084-0.91-1.821-0.899c-0.137,0-0.274,0.007-0.427,0.019
		c0-0.728,0.154-1.477,0.154-2.232c0-0.641-0.113-1.292-0.528-1.926c-0.574-0.871-1.335-1.188-2.032-1.694l-0.16-0.052
		c0.03-0.176,0.052-0.354,0.052-0.525v-0.105c-0.012-0.202-0.053-0.467-0.127-0.736l0,0l0,0c-0.038-0.139-0.081-0.275-0.14-0.409
		c-0.155-0.344-0.398-0.669-0.771-0.774c-0.141-0.51-0.296-0.85-0.296-1.354V54.07z"/>
	<path fill="#FFFFFF" d="M92.934,36.825l2.207,4.154l-4.484,2.384c-0.258-0.157-0.555-0.358-0.885-0.607
		c-0.33-0.241-0.672-0.55-1.023-0.917c-0.352-0.371-0.717-0.806-1.086-1.313c-0.369-0.504-0.738-1.097-1.102-1.778
		c-0.541-1.014-0.898-2-1.08-2.953c-0.184-0.953-0.15-1.869,0.096-2.739c0.248-0.873,0.73-1.694,1.449-2.479
		c0.717-0.78,1.707-1.51,2.979-2.184c1.254-0.667,2.414-1.082,3.465-1.246c1.057-0.161,2.012-0.102,2.869,0.176
		c0.857,0.276,1.629,0.756,2.32,1.442c0.689,0.681,1.301,1.53,1.832,2.531c0.371,0.693,0.656,1.33,0.867,1.917
		c0.207,0.585,0.365,1.127,0.473,1.624c0.111,0.497,0.174,0.95,0.193,1.364c0.02,0.41,0.027,0.781,0.025,1.106l-4.33,2.301
		l-2.207-4.151l1.246-0.663c0.447-0.239,0.723-0.513,0.82-0.817c0.098-0.3,0.041-0.648-0.168-1.043
		c-0.207-0.391-0.465-0.629-0.77-0.719c-0.309-0.09-0.686-0.017-1.135,0.225l-5.227,2.777c-0.449,0.24-0.727,0.513-0.818,0.817
		c-0.1,0.3-0.045,0.649,0.162,1.042c0.209,0.393,0.465,0.633,0.771,0.723c0.309,0.087,0.688,0.013,1.137-0.229L92.934,36.825z"/>
	<path fill="#FFFFFF" d="M94.139,56.082c-0.023,0.432,0.027,0.739,0.148,0.927c0.119,0.194,0.314,0.292,0.574,0.304
		c0.182,0.01,0.346-0.057,0.492-0.199c0.145-0.141,0.318-0.439,0.523-0.887c0.412-0.947,0.805-1.774,1.174-2.481
		c0.367-0.708,0.768-1.291,1.195-1.748c0.428-0.458,0.92-0.786,1.471-0.997c0.553-0.207,1.217-0.293,1.988-0.256
		c0.729,0.037,1.379,0.183,1.951,0.441c0.566,0.254,1.045,0.655,1.43,1.189c0.387,0.535,0.664,1.238,0.838,2.102
		c0.176,0.865,0.227,1.926,0.162,3.177c-0.055,1.139-0.223,2.202-0.498,3.196c-0.277,0.994-0.623,1.812-1.035,2.461l-3.502-0.175
		l0.199-4.11c0.383,0.018,0.645-0.073,0.793-0.276c0.145-0.203,0.227-0.453,0.244-0.752c0.018-0.431-0.02-0.744-0.123-0.938
		c-0.102-0.196-0.287-0.299-0.563-0.313c-0.223-0.01-0.389,0.082-0.506,0.278c-0.113,0.198-0.248,0.498-0.395,0.895
		c-0.287,0.745-0.582,1.448-0.893,2.104c-0.309,0.658-0.674,1.232-1.105,1.721s-0.938,0.869-1.529,1.131
		c-0.584,0.266-1.301,0.377-2.131,0.336c-1.701-0.084-2.936-0.695-3.711-1.834c-0.777-1.137-1.111-2.764-1.004-4.877
		c0.061-1.199,0.223-2.35,0.486-3.448c0.262-1.1,0.555-1.976,0.877-2.625l3.875,0.193l-0.213,4.305
		c-0.393-0.02-0.688,0.045-0.885,0.192C94.271,55.266,94.164,55.587,94.139,56.082z"/>
	<path fill="#FFFFFF" d="M35.493,93.52l6.222,3.071l-1.293,2.62l-0.88-0.436l-1.736,3.515c-0.333-0.004-0.712-0.026-1.135-0.069
		c-0.426-0.043-0.894-0.123-1.409-0.246c-0.515-0.122-1.075-0.293-1.686-0.504c-0.607-0.212-1.264-0.493-1.969-0.842
		c-1.053-0.522-1.939-1.119-2.655-1.793c-0.716-0.676-1.232-1.438-1.544-2.292c-0.317-0.854-0.409-1.809-0.28-2.863
		c0.125-1.052,0.506-2.224,1.143-3.511c0.631-1.277,1.325-2.289,2.091-3.036c0.762-0.745,1.572-1.256,2.436-1.527
		c0.862-0.272,1.78-0.331,2.755-0.17c0.971,0.156,1.977,0.494,3.017,1.01c0.717,0.352,1.348,0.705,1.893,1.064
		c0.544,0.356,1.022,0.703,1.429,1.045c0.408,0.34,0.757,0.665,1.05,0.977c0.288,0.313,0.536,0.599,0.743,0.858l-2.074,4.203
		l-4.394-2.172l0.408-0.826c0.248-0.503,0.322-0.909,0.223-1.223c-0.103-0.313-0.375-0.578-0.822-0.796
		c-0.444-0.222-0.823-0.278-1.13-0.168c-0.31,0.109-0.589,0.418-0.835,0.92l-2.537,5.132c-0.248,0.504-0.321,0.912-0.221,1.225
		c0.099,0.313,0.373,0.576,0.816,0.797c0.446,0.221,0.822,0.275,1.133,0.166c0.309-0.111,0.586-0.414,0.838-0.919l0.062-0.125
		L34.2,96.137L35.493,93.52z"/>
	<g>
		<path fill="#FFFFFF" d="M43.877,32.937l1.915-0.44h1.665v5.296h0.725v1.415h-4.045v-1.415h0.828v-3.882h-1.088V32.937z"/>
		<path fill="#FFFFFF" d="M48.785,37.508c0.224,0.075,0.493,0.141,0.807,0.199c0.313,0.057,0.668,0.086,1.064,0.086
			c0.352,0,0.614-0.102,0.79-0.307c0.175-0.204,0.263-0.496,0.263-0.875V36.43c-0.155,0.058-0.337,0.112-0.543,0.165
			c-0.208,0.051-0.449,0.077-0.726,0.077c-0.258,0-0.51-0.028-0.754-0.085c-0.244-0.058-0.462-0.16-0.651-0.306
			c-0.189-0.147-0.342-0.346-0.457-0.596s-0.173-0.571-0.173-0.961c0-0.816,0.234-1.412,0.703-1.786
			c0.469-0.374,1.141-0.561,2.014-0.561c0.478,0,0.904,0.06,1.281,0.181c0.376,0.121,0.694,0.305,0.952,0.552
			c0.26,0.248,0.458,0.56,0.597,0.936c0.137,0.377,0.206,0.822,0.206,1.333c0,0.73-0.073,1.347-0.22,1.85
			c-0.146,0.503-0.361,0.91-0.643,1.221c-0.282,0.311-0.624,0.535-1.026,0.673c-0.403,0.138-0.856,0.207-1.362,0.207
			c-0.489,0-0.905-0.047-1.247-0.143c-0.342-0.095-0.634-0.19-0.875-0.289V37.508z M51.148,35.317c0.109,0,0.212-0.012,0.306-0.035
			c0.096-0.023,0.181-0.049,0.255-0.078V34.55c0-0.225-0.049-0.387-0.146-0.488s-0.245-0.151-0.44-0.151s-0.342,0.052-0.439,0.156
			c-0.098,0.103-0.146,0.293-0.146,0.569C50.536,35.09,50.74,35.317,51.148,35.317z"/>
		<path fill="#FFFFFF" d="M54.763,37.508c0.224,0.075,0.492,0.141,0.806,0.199c0.313,0.057,0.669,0.086,1.065,0.086
			c0.351,0,0.614-0.102,0.789-0.307c0.176-0.204,0.263-0.496,0.263-0.875V36.43c-0.154,0.058-0.336,0.112-0.543,0.165
			c-0.207,0.051-0.448,0.077-0.725,0.077c-0.259,0-0.51-0.028-0.755-0.085c-0.243-0.058-0.461-0.16-0.65-0.306
			c-0.189-0.147-0.343-0.346-0.457-0.596c-0.115-0.25-0.173-0.571-0.173-0.961c0-0.816,0.234-1.412,0.703-1.786
			c0.469-0.374,1.14-0.561,2.014-0.561c0.478,0,0.904,0.06,1.279,0.181c0.379,0.121,0.695,0.305,0.955,0.552
			c0.258,0.248,0.457,0.56,0.594,0.936c0.139,0.377,0.207,0.822,0.207,1.333c0,0.73-0.072,1.347-0.221,1.85
			c-0.145,0.503-0.359,0.91-0.641,1.221c-0.283,0.311-0.625,0.535-1.027,0.673c-0.402,0.138-0.856,0.207-1.361,0.207
			c-0.489,0-0.905-0.047-1.247-0.143c-0.343-0.095-0.634-0.19-0.875-0.289V37.508z M57.126,35.317c0.108,0,0.211-0.012,0.306-0.035
			s0.18-0.049,0.254-0.078V34.55c0-0.225-0.049-0.387-0.146-0.488c-0.099-0.101-0.245-0.151-0.44-0.151s-0.343,0.052-0.44,0.156
			c-0.098,0.103-0.146,0.293-0.146,0.569C56.513,35.09,56.717,35.317,57.126,35.317z"/>
		<path fill="#FFFFFF" d="M65.758,34.196c-0.201-0.063-0.449-0.126-0.742-0.189c-0.293-0.063-0.611-0.095-0.957-0.095
			c-0.414,0-0.715,0.111-0.9,0.333c-0.188,0.221-0.281,0.504-0.281,0.85v0.25c0.174-0.063,0.375-0.119,0.604-0.168
			c0.23-0.049,0.453-0.073,0.664-0.073c0.26,0,0.512,0.029,0.756,0.086c0.244,0.057,0.461,0.159,0.65,0.306
			c0.189,0.146,0.342,0.344,0.457,0.591s0.172,0.561,0.172,0.94c0,0.799-0.234,1.383-0.705,1.751
			c-0.473,0.368-1.143,0.552-2.01,0.552c-0.467,0-0.887-0.061-1.26-0.181c-0.375-0.121-0.691-0.305-0.953-0.552
			c-0.262-0.248-0.465-0.56-0.609-0.937c-0.143-0.376-0.215-0.82-0.215-1.333c0-0.707,0.08-1.311,0.236-1.811
			c0.16-0.5,0.381-0.909,0.67-1.226c0.287-0.315,0.629-0.547,1.025-0.694c0.396-0.146,0.838-0.22,1.32-0.22
			c0.248,0,0.475,0.013,0.682,0.039c0.207,0.026,0.396,0.06,0.568,0.103c0.174,0.043,0.326,0.091,0.461,0.143
			c0.137,0.052,0.258,0.101,0.367,0.147V34.196z M63.438,36.456c-0.068,0-0.152,0.009-0.25,0.026
			c-0.098,0.018-0.201,0.046-0.311,0.086v0.587c0,0.225,0.049,0.386,0.148,0.487c0.096,0.101,0.242,0.151,0.439,0.151
			c0.195,0,0.342-0.051,0.439-0.151c0.098-0.101,0.146-0.263,0.146-0.487C64.051,36.688,63.846,36.456,63.438,36.456z"/>
	</g>
	<path fill="#FFFFFF" d="M4.116,54.988c0,1.825,0.105,3.624,0.294,5.399l12.027,2.777l0.033,0.785l3.21-0.134l-0.036-0.865
		c-0.424-1.886-0.699-3.828-0.815-5.812l-2.637,0.111l0.048,1.174l-1.56-0.247l-0.109-2.645l1.531-0.399l0.051,1.179l2.632-0.111
		c-0.013-0.399-0.025-0.799-0.025-1.202c0-1.683,0.125-3.337,0.348-4.96L19.043,48.5l-3.212,0.133l0.034,0.785L4.151,53.172
		C4.13,53.775,4.116,54.379,4.116,54.988z M12.586,57.832l-3.951-0.641l-0.007-0.193l3.882-0.969L12.586,57.832z"/>
	<path fill="#FFFFFF" d="M87.148,91.56l-4.143-7.79l1.037-0.553l-1.871-3.729l-3.281,2.828c-1.314,1.148-2.709,2.205-4.178,3.157
		l1.096,6.099l-4.402-4.196c-2.258,1.148-4.652,2.065-7.15,2.723l-2.174,0.575l1.836,3.245l1.037-0.551l4.141,7.79l-1.039,0.55
		l1.113,2.093c1.857-0.542,3.67-1.188,5.434-1.93l1.021-0.543l-1.512-2.841l-1.037,0.554l-3.654-6.871l9.072,7.631l1.873-0.995
		l-1.701-11.506l3.633,6.837l-1.037,0.554l1.508,2.831c2.223-1.459,4.324-3.09,6.287-4.869l-0.873-1.645L87.148,91.56z"/>
	<path fill="#FFFFFF" d="M49.77,102.75l-0.036,2.808c1.717,0.176,3.458,0.27,5.221,0.27c0.879,0,1.751-0.027,2.618-0.071
		l0.037-2.903l-1.176-0.017l0.027-2.039l3.871-6.73l0.686,0.008l0.039-3.285l-0.416,0.065c-1.797,0.28-3.635,0.427-5.508,0.432
		l-0.032,2.713l0.685,0.009l-1.199,3.417l-0.2-0.004l-1.111-3.445l0.687,0.008l0.038-2.712c-1.86-0.053-3.686-0.248-5.466-0.572
		l-2.079-0.475v3.663l0.707,0.008l3.813,6.833l-0.027,2.039L49.77,102.75z"/>
	<path fill="#FFFFFF" d="M85.846,18.279l-6.068,6.403l-0.855-0.81l-2.047,2.164c2.094,1.582,4.004,3.387,5.709,5.375l2.033-2.146
		l-0.852-0.808l6.066-6.402l0.852,0.808l1.908-2.014c-1.758-1.937-3.666-3.736-5.701-5.383l-1.898,2.004L85.846,18.279z"/>
	<path fill="#FFFFFF" d="M70.207,11.017l0.629-1.414l1.148,0.508l-3.576,8.063l-1.256-0.556l-1.227,2.763
		c2.65,0.835,5.166,1.971,7.518,3.36l1.234-2.784l-1.252-0.557l3.576-8.064l1.143,0.511l-0.625,1.415l3.08,1.366l1.578-3.556
		c-4.121-2.624-8.645-4.67-13.453-6.025l-1.598,3.603L70.207,11.017z"/>
	<path fill="#FFFFFF" d="M48.506,4.557l-0.011,2.477l1.176,0.003l-0.039,8.821l-1.177-0.006L48.44,19.07l1.513,0.007
		c1.665-0.235,3.363-0.364,5.092-0.364c1.856,0,3.68,0.141,5.463,0.412l1.359,0.006l0.027-6.313l-4.391-0.019l-0.013,3.097
		l-2.373-0.012l0.016-3.487l1.727,0.006l0.009-2.235l-1.724-0.007l0.017-3.096l2.368,0.007l-0.01,2.708l4.39,0.02l0.021-5.169
		c-2.281-0.315-4.61-0.481-6.978-0.481C52.771,4.15,50.618,4.289,48.506,4.557z"/>
	<path fill="#FFFFFF" d="M32.55,12.381l3.318,8.175l-1.094,0.44l1.21,2.981l0.851-0.345c2.938-1.713,6.136-3.026,9.521-3.861
		l1.054-0.427l-1.886-4.651l-3.615,1.467l0.681,1.67l-1.638,0.663l-3.314-8.173l1.67-0.681l-1.08-2.658
		c-2.688,0.939-5.274,2.097-7.736,3.454l0.972,2.391L32.55,12.381z"/>
	<path fill="#FFFFFF" d="M18.137,19.965c-1.767,1.856-3.393,3.848-4.866,5.954l1.715,1.646l0.811-0.849l6.365,6.107l-0.813,0.85
		l2.319,2.224l1.79-1.865c0.986-1.388,2.066-2.703,3.233-3.937l-2.034-1.953l-0.693,0.72l-2.334-2.239l2.036-2.122l2.335,2.239
		l-0.692,0.723l2.032,1.95c1.107-1.111,2.289-2.147,3.531-3.109l2.06-2.146l-2.319-2.226L31.8,22.781l-6.366-6.106l0.815-0.849
		l-1.654-1.591c-2.06,1.538-3.998,3.231-5.8,5.056l2.149,2.062l0.691-0.72l2.15,2.062l-2.036,2.121l-2.15-2.062l0.695-0.722
		L18.137,19.965z"/>
	<path fill="#FFFFFF" d="M8.889,47.294l1.043-3.207l-1.471-0.48l0.389-1.192l8.384,2.733l-0.423,1.306l2.765,0.901
		c0.587-2.726,1.479-5.338,2.643-7.799l-2.855-0.93l-0.426,1.303l-8.386-2.732l0.391-1.193l1.472,0.48l1.045-3.206l-3.853-1.256
		C7.4,36.36,5.797,41.055,4.912,45.995L8.889,47.294z"/>
</g>
</svg>
